<?xml version="1.0" standalone="no"?>
<!DOCTYPE svg PUBLIC "-//W3C//DTD SVG 20010904//EN"
 "http://www.w3.org/TR/2001/REC-SVG-20010904/DTD/svg10.dtd">
<svg version="1.0" xmlns="http://www.w3.org/2000/svg"
 width="260.000000pt" height="260.000000pt" viewBox="0 0 260.000000 260.000000"
 preserveAspectRatio="xMidYMid meet">
<metadata>
Created by potrace 1.14, written by Peter Selinger 2001-2017
</metadata>
<g transform="translate(0.000000,260.000000) scale(0.100000,-0.100000)"
fill="#000000" stroke="none">
<path d="M0 1300 l0 -1300 1300 0 1300 0 0 1300 0 1300 -1300 0 -1300 0 0
-1300z m898 495 c126 -30 215 -95 269 -197 26 -49 28 -62 28 -163 0 -126 -15
-172 -81 -245 -49 -54 -95 -83 -176 -111 -52 -18 -93 -23 -230 -27 l-167 -5
-3 -141 -3 -141 -122 -3 -123 -3 0 526 0 525 273 0 c205 0 288 -4 335 -15z
m750 -357 c86 -202 159 -364 163 -360 4 4 77 169 163 367 l155 360 122 3 c95
2 120 0 116 -10 -3 -7 -103 -238 -222 -513 -119 -275 -219 -506 -222 -513 -4
-9 -35 -12 -125 -10 l-121 3 -223 519 c-123 286 -224 521 -224 523 0 2 59 2
131 1 l131 -3 156 -367z"/>
<path d="M540 1430 l0 -180 121 0 c144 0 199 12 244 54 65 62 69 190 7 249
-49 47 -89 57 -237 57 l-135 0 0 -180z"/>
</g>
</svg>
